<svg width="256" height="256" viewBox="0 0 22 22" fill="none" xmlns="http://www.w3.org/2000/svg">
<rect width="22" height="22" fill="#141D26" fill-opacity="0.76"/>
<rect x="1.5" y="12.5" width="19" height="6" stroke="#60C689"/>
<rect x="10.5" y="5" width="1" height="3" fill="#57ACDC"/>
<rect x="3" y="13" width="1" height="3" fill="#60C689"/>
<rect x="18" y="13" width="1" height="3" fill="#60C689"/>
<rect x="10.5" y="13" width="1" height="2" fill="#60C689"/>
<rect width="1" height="3" transform="matrix(0 1 1 0 15.5 6)" fill="#57ACDC"/>
<rect width="1" height="3" transform="matrix(0 1 1 0 3.5 6)" fill="#57ACDC"/>
<path d="M11.5 8C11.5 8.53043 11.2893 9.03914 10.9142 9.41421C10.5391 9.78929 10.0304 10 9.5 10C8.96957 10 8.46086 9.78929 8.08579 9.41421C7.71071 9.03914 7.5 8.53043 7.5 8L8.5 8C8.5 8.26522 8.60536 8.51957 8.79289 8.70711C8.98043 8.89464 9.23478 9 9.5 9C9.76522 9 10.0196 8.89464 10.2071 8.70711C10.3946 8.51957 10.5 8.26522 10.5 8H11.5Z" fill="#57ACDC"/>
<path d="M10.5 5C10.5 4.46957 10.7107 3.96086 11.0858 3.58579C11.4609 3.21071 11.9696 3 12.5 3C13.0304 3 13.5391 3.21071 13.9142 3.58579C14.2893 3.96086 14.5 4.46957 14.5 5L13.5 5C13.5 4.73478 13.3946 4.48043 13.2071 4.29289C13.0196 4.10536 12.7652 4 12.5 4C12.2348 4 11.9804 4.10536 11.7929 4.29289C11.6054 4.48043 11.5 4.73478 11.5 5H10.5Z" fill="#57ACDC"/>
<path d="M6.5 6C6.76264 6 7.02272 6.05173 7.26537 6.15224C7.50802 6.25275 7.7285 6.40007 7.91421 6.58579C8.09993 6.7715 8.24725 6.99198 8.34776 7.23463C8.44827 7.47728 8.5 7.73736 8.5 8L7.5 8C7.5 7.86868 7.47413 7.73864 7.42388 7.61732C7.37362 7.49599 7.29997 7.38575 7.20711 7.29289C7.11425 7.20003 7.00401 7.12638 6.88268 7.07612C6.76136 7.02587 6.63132 7 6.5 7L6.5 6Z" fill="#57ACDC"/>
<path d="M15.5 7C15.2374 7 14.9773 6.94827 14.7346 6.84776C14.492 6.74725 14.2715 6.59993 14.0858 6.41421C13.9001 6.2285 13.7528 6.00802 13.6522 5.76537C13.5517 5.52272 13.5 5.26264 13.5 5L14.5 5C14.5 5.13132 14.5259 5.26136 14.5761 5.38268C14.6264 5.50401 14.7 5.61425 14.7929 5.70711C14.8858 5.79997 14.996 5.87362 15.1173 5.92388C15.2386 5.97413 15.3687 6 15.5 6V7Z" fill="#57ACDC"/>
<circle cx="3.5" cy="6.5" r="2.5" fill="#57ACDC"/>
<rect x="16" y="4" width="5" height="5" rx="1" fill="#57ACDC"/>
</svg>
